<svg width="65" height="29" viewBox="0 0 65 29" fill="none" xmlns="http://www.w3.org/2000/svg">
<path d="M63.8161 12.7772L51.9876 1.39387C50.9567 0.402656 49.3168 0.434089 48.3239 1.46503C47.3327 2.49598 47.3641 4.13587 48.3951 5.12878L55.5538 12.016L2.88634 11.8307H2.87144C1.44664 11.8307 0.288253 12.9808 0.280074 14.4056C0.271773 15.837 1.42515 17.0036 2.85655 17.0119L55.5372 17.1972L48.4133 23.919C47.3724 24.9003 47.3244 26.5402 48.3056 27.5811C48.8154 28.1222 49.5022 28.3936 50.1922 28.3936C50.8293 28.3936 51.468 28.1603 51.9677 27.6887L63.7979 16.5287C64.3126 16.0422 64.6071 15.3654 64.6104 14.6571C64.6137 13.9472 64.3275 13.2687 63.8161 12.7772Z" fill="#6DDBFA"/>
</svg>
